<svg width="341.3061968712626" height="60.842385054226504" viewBox="0 0 341.3061968712626 60.842385054226504" class="css-1j8o68f"><defs id="SvgjsDefs1557"></defs><g id="SvgjsG1558" featurekey="Df7oLJ-0" transform="matrix(0.7492329705697618,0,0,0.7492329705697618,-2.3720725737254154,-6.752001136219661)" fill="#111111"><g xmlns="http://www.w3.org/2000/svg"><path d="M52.97,26.428c-7.903,0-14.331,6.429-14.331,14.33c0,7.903,6.428,14.331,14.331,14.331c7.901,0,14.33-6.428,14.33-14.331   C67.3,32.856,60.871,26.428,52.97,26.428z"></path><path d="M38.368,46.5c-0.233-0.593-0.436-1.202-0.599-1.828l-18.577,5.247c-1.249-3.026-4.224-5.155-7.698-5.155   c-4.601,0-8.328,3.728-8.328,8.326c0,4.599,3.728,8.328,8.328,8.328c4.599,0,8.326-3.729,8.326-8.328   c0-0.451-0.045-0.889-0.115-1.32L38.368,46.5z"></path><path d="M30.136,20.9c0.23-0.144,0.445-0.302,0.65-0.469l10.63,9.719c0.435-0.474,0.9-0.918,1.389-1.335l-10.721-9.801   c1.357-2.031,1.497-4.75,0.126-6.961c-1.87-3.016-5.83-3.946-8.846-2.076c-3.018,1.87-3.945,5.831-2.076,8.847   S27.119,22.771,30.136,20.9z"></path><path d="M64.758,30.416l11.468-8.525c1.736,1.72,4.377,2.373,6.811,1.447c3.315-1.265,4.98-4.977,3.717-8.292   c-1.265-3.317-4.977-4.981-8.294-3.718c-3.314,1.263-4.98,4.977-3.716,8.292c0.097,0.254,0.213,0.495,0.337,0.729l-11.69,8.69   C63.872,29.469,64.33,29.929,64.758,30.416z"></path><path d="M47.697,74.572c-0.396-0.215-0.804-0.385-1.215-0.53l4.023-17.785c-0.637-0.102-1.263-0.244-1.875-0.42L44.609,73.61   c-3.254-0.348-6.547,1.25-8.206,4.303c-2.194,4.041-0.699,9.097,3.341,11.293c4.042,2.196,9.098,0.7,11.293-3.341   C53.232,81.824,51.738,76.768,47.697,74.572z"></path><path d="M89.794,49.945c-2.887-2.062-6.901-1.394-8.962,1.495c-0.159,0.222-0.296,0.451-0.42,0.683l-13.218-4.748   c-0.275,0.591-0.585,1.16-0.93,1.708l13.496,4.849c-0.47,2.398,0.446,4.958,2.565,6.471c2.889,2.063,6.901,1.393,8.965-1.495   C93.354,56.02,92.683,52.007,89.794,49.945z"></path></g></g><g id="SvgjsG1559" featurekey="Ua4uQk-0" transform="matrix(2.6141671475932577,0,0,2.6141671475932577,85.1700822487655,-8.057602121940507)" fill="#111111"><path d="M5.86 5.76 c2.52 0 4.06 1.56 4.82 2.88 l-2.36 1.42 c-0.78 -1 -1.46 -1.46 -2.46 -1.46 c-0.86 0 -1.5 0.5 -1.5 1.2 c0 0.72 0.4 1.08 1.4 1.42 l0.94 0.34 c3.26 1.14 4.38 2.58 4.38 4.44 c0 2.92 -2.76 4.3 -5.16 4.3 c-2.56 0 -4.52 -1.52 -5.22 -3.46 l2.46 -1.32 c0.5 0.9 1.24 1.88 2.76 1.88 c1.04 0 1.82 -0.42 1.82 -1.36 c0 -0.86 -0.48 -1.26 -1.98 -1.82 l-0.8 -0.28 c-2.06 -0.74 -3.8 -1.72 -3.8 -4.28 c0 -2.28 2.16 -3.9 4.7 -3.9 z M20.28 9.6 l3.16 0 l0 10.4 l-3.16 0 l0 -1.04 c-0.14 0.36 -1.08 1.24 -2.68 1.24 c-2.38 0 -5.12 -1.7 -5.12 -5.42 c0 -3.58 2.74 -5.36 5.12 -5.36 c1.6 0 2.54 0.92 2.68 1.14 l0 -0.96 z M18.06 17.42 c1.3 0 2.36 -0.9 2.36 -2.64 c0 -1.68 -1.06 -2.58 -2.36 -2.58 c-1.36 0 -2.52 0.92 -2.52 2.58 c0 1.72 1.16 2.64 2.52 2.64 z M28.64 5.859999999999999 l0 14.14 l-3.16 0 l0 -14.14 l3.16 0 z M35.74 17.36 c0.56 0 0.96 -0.08 1.4 -0.2 l0 2.62 c-0.44 0.2 -1.16 0.34 -2.22 0.34 c-1.74 0 -3.2 -0.58 -3.2 -3.78 l0 -4.14 l-1.46 0 l0 -2.6 l1.46 0 l0 -2.44 l3.16 0 l0 2.44 l2.22 0 l0 2.6 l-2.22 0 l0 4.14 c0 0.46 0.12 1.02 0.86 1.02 z M47.26 9.56 l3.14 0 l-6.36 14.24 l-3.16 0 l1.92 -4.16 l-4.5 -10.08 l3.14 0 l2.92 6.68 z M56.76 5.76 c2.52 0 4.06 1.56 4.82 2.88 l-2.36 1.42 c-0.78 -1 -1.46 -1.46 -2.46 -1.46 c-0.86 0 -1.5 0.5 -1.5 1.2 c0 0.72 0.4 1.08 1.4 1.42 l0.94 0.34 c3.26 1.14 4.38 2.58 4.38 4.44 c0 2.92 -2.76 4.3 -5.16 4.3 c-2.56 0 -4.52 -1.52 -5.22 -3.46 l2.46 -1.32 c0.5 0.9 1.24 1.88 2.76 1.88 c1.04 0 1.82 -0.42 1.82 -1.36 c0 -0.86 -0.48 -1.26 -1.98 -1.82 l-0.8 -0.28 c-2.06 -0.74 -3.8 -1.72 -3.8 -4.28 c0 -2.28 2.16 -3.9 4.7 -3.9 z M69.54 9.42 c2.38 0 5.12 1.78 5.12 5.36 c0 3.72 -2.74 5.42 -5.12 5.42 c-1.6 0 -2.54 -0.88 -2.68 -1.24 l0 4.84 l-3.16 0 l0 -6.02 l0 -8.18 l3.16 0 l0 0.96 c0.14 -0.22 1.08 -1.14 2.68 -1.14 z M69.08 17.42 c1.36 0 2.52 -0.92 2.52 -2.64 c0 -1.66 -1.16 -2.58 -2.52 -2.58 c-1.3 0 -2.36 0.9 -2.36 2.58 c0 1.74 1.06 2.64 2.36 2.64 z M81.53999999999999 9.42 c2.36 0 5.66 1.78 5 6.48 l-7.26 0 c0.36 1.08 1.3 1.64 2.56 1.64 c1.28 0 1.68 -0.28 2.4 -0.58 l1.74 1.68 c-0.92 0.9 -2.16 1.56 -4.26 1.56 c-2.58 0 -5.66 -1.78 -5.66 -5.36 c0 -3.64 3.12 -5.42 5.48 -5.42 z M81.53999999999999 12.120000000000001 c-0.9 0 -1.82 0.52 -2.22 1.56 l4.42 0 c-0.32 -1.04 -1.3 -1.56 -2.2 -1.56 z M93.46 9.42 c1.9 0 3.5 0.8 4.48 2.48 l-2.4 1.14 c-0.52 -0.44 -0.94 -0.84 -2.04 -0.84 c-1.2 0 -2.42 0.92 -2.42 2.62 c0 1.68 1.22 2.56 2.42 2.56 c1.1 0 1.52 -0.36 2.04 -0.8 l2.44 1.14 c-1.02 1.68 -2.58 2.44 -4.52 2.44 c-2.32 0 -5.44 -1.66 -5.44 -5.34 c0 -3.62 3.12 -5.4 5.44 -5.4 z"></path></g></svg>